<?xml version="1.0" encoding="utf-8"?>
<!-- Generator: Adobe Illustrator 22.1.0, SVG Export Plug-In . SVG Version: 6.00 Build 0)  -->
<svg version="1.1" xmlns="http://www.w3.org/2000/svg" xmlns:xlink="http://www.w3.org/1999/xlink" x="0px" y="0px"
	 viewBox="0 0 403 87" style="enable-background:new 0 0 403 87;" xml:space="preserve">
<style type="text/css">
	.st0{display:none;}
	.st1{display:inline;}
	.st2{opacity:0.8;}
	.st3{fill:#FFFFFF;}
	.st4{opacity:0.75;}
	.st5{opacity:0.3;fill:#F4006F;}
	.st6{opacity:0.6;fill:#F4006F;}
	.st7{opacity:0.9;fill:#F4006F;}
	.st8{fill:#19FFFF;}
	.st9{display:inline;opacity:0.8;}
</style>
<g id="Black" class="st0">
	<g id="Layer_7" class="st1">
		<g id="word-font">
			<path d="M56.6,263.3H62l10.8,20.6l10.6-20.6h5.4V301h-5.7v-23.5H83l-7.9,14.1l-2.4,4.3l-10.3-18.4h-0.1V301h-5.8L56.6,263.3
				L56.6,263.3z"/>
			<path d="M113.8,287.7h-10.9L98.3,301h-6l13.7-37.7h4.8l13.7,37.7h-6L113.8,287.7z M112.1,282.2l-3.7-11.2h-0.1l-3.7,11.1
				L112.1,282.2L112.1,282.2z"/>
			<path d="M127.9,263.3h5.7v19.4h0.1l15.6-19.4h6.8L140,282.6l17.3,18.4h-6.8l-13.7-14.8l-3.2,4.2V301h-5.7L127.9,263.3
				L127.9,263.3z"/>
			<path d="M160.7,263.3h24.1v5.4h-18.4v10.8h15.7v5.1h-15.7v11.1h18.4v5.3h-24.1V263.3z"/>
			<path d="M188.9,263.3h14.7c2.8-0.1,5.5,0.8,7.7,2.5c2.4,2,3.8,4.9,3.8,8c-0.1,5.1-2.5,8.6-7.3,10.5l8.7,16.8h-6.8l-7.8-16.1h-7.3
				v16h-5.7V263.3L188.9,263.3z M194.6,279.8h8.7c1.8,0.1,3.6-0.6,4.8-1.9c1-1.1,1.6-2.6,1.6-4.1c0.1-1.6-0.6-3.2-1.9-4.3
				c-1.2-0.9-2.7-1.3-4.2-1.2h-9L194.6,279.8z"/>
			<path d="M232.9,263.3H257v5.4h-18.4v10.8h15.7v5.1h-15.7v11.1H257v5.3h-24.1L232.9,263.3L232.9,263.3z"/>
			<path d="M308,280.2h13.4v7.7c0,1.8,0,4.9,0,7.7c0,3.1-2.5,5.6-5.6,5.7l0,0c-2.8,0-5.9,0-7.8,0c-2.6,0-5.2-0.7-7.5-2.2
				c-1.8-1.1-3.4-2.7-4.4-4.6c-0.3-0.6-0.5-1.1-0.8-1.6c-0.2-0.6-0.4-1.3-0.5-2c-0.3-2.9-0.5-5.8-0.4-8.8c-0.1-2.9,0.1-5.9,0.4-8.8
				c0.2-1.3,0.6-2.5,1.3-3.6c2.4-4.3,6.9-6.9,11.8-6.8h7.6c3.1,0,5.6,2.5,5.6,5.5c0,0.1,0.1,5.5,0.1,5.6h-6.1v-3
				c-0.1-1.5-1.5-2.6-3-2.5c-3,0-4.2,0-4.2,0c-1.2,0.1-2.3,0.4-3.5,0.8c-0.9,0.5-1.7,1.1-2.4,1.9c-0.8,0.9-1.3,2-1.5,3.1
				c-0.3,2.5-0.5,5.1-0.4,7.6c-0.1,2.5,0.1,5,0.4,7.5c0.2,1.2,0.7,2.3,1.5,3.2c0.6,0.8,1.5,1.4,2.4,1.9c1.1,0.6,2.3,0.9,3.5,0.9
				c3.5,0,1.8-0.1,4.9-0.1s2.8-2.6,2.8-2.6v-7.3h-7.7L308,280.2z"/>
			<path d="M326.5,263.3h5.7V301h-5.7V263.3z"/>
			<path d="M338.4,263.3h5.4l17.1,26.9h0.1v-26.9h5.7V301h-5.4l-17.1-26.8h-0.1V301h-5.7V263.3L338.4,263.3z"/>
			<path d="M261,263.3h5.4l17.1,26.9h0.1v-26.9h5.7V301h-5.4l-17.1-26.8h-0.1V301H261V263.3z"/>
			<path d="M372.9,263.3H397v5.4h-18.4v10.8h15.7v5.1h-15.7v11.1H397v5.3h-24.1V263.3z"/>
		</g>
	</g>
	<g id="Layer_5" class="st1">
		<path d="M10.3,264.5c0-7.2,3.7-14,9.9-17.8l20.5-12.9l-5.7-3.5l-20.1,12.6C8.7,246.7,5,253.5,5,260.7V284l5.3,3.3
			C10.3,287.2,10.3,264.5,10.3,264.5z"/>
		<path d="M21,271.1c0-7.2,3.7-14,9.9-17.8l20.5-12.9l-7.3-4.6L24,248.4c-6.2,3.8-9.9,10.6-9.9,17.8v4.8l4.6,21
			C18.7,292.1,21,271.1,21,271.1z"/>
		<path d="M31.8,278c0-7.2,3.7-14,9.9-17.8l20.5-12.9l-7.3-4.6l-20.1,12.6c-6.2,3.8-11.2,8.6-9.9,17.8l4.2,25.7l2.7,1.7V278z"/>
	</g>
</g>
<g id="Colour">
	<g id="text" class="st2">
		<g id="word-font_2_">
			<path class="st3" d="M57.1,41h5.4l10.8,20.6L83.9,41h5.4v37.7h-5.7V55.2h-0.1l-7.9,14.1l-2.4,4.3L62.9,55.2h-0.1v23.5H57L57.1,41
				L57.1,41z"/>
			<path class="st3" d="M114.3,65.4h-10.9l-4.6,13.3h-6L106.5,41h4.8L125,78.7h-6L114.3,65.4z M112.6,59.9l-3.7-11.2h-0.1l-3.7,11.1
				L112.6,59.9L112.6,59.9z"/>
			<path class="st3" d="M128.4,41h5.7v19.4h0.1L149.8,41h6.8l-16.1,19.3l17.3,18.4H151l-13.7-14.8l-3.2,4.2v10.6h-5.7L128.4,41
				L128.4,41z"/>
			<path class="st3" d="M161.2,41h24.1v5.4h-18.4v10.8h15.7v5.1h-15.7v11.1h18.4v5.3h-24.1V41z"/>
			<path class="st3" d="M189.4,41h14.7c2.8-0.1,5.5,0.8,7.7,2.5c2.4,2,3.8,4.9,3.8,8c-0.1,5.1-2.5,8.6-7.3,10.5l8.7,16.8h-6.8
				l-7.8-16.1h-7.3v16h-5.7V41L189.4,41z M195.1,57.5h8.7c1.8,0.1,3.6-0.6,4.8-1.9c1-1.1,1.6-2.6,1.6-4.1c0.1-1.6-0.6-3.2-1.9-4.3
				c-1.2-0.9-2.7-1.3-4.2-1.2h-9L195.1,57.5z"/>
			<path class="st3" d="M233.4,41h24.1v5.4h-18.4v10.8h15.7v5.1h-15.7v11.1h18.4v5.3h-24.1L233.4,41L233.4,41z"/>
			<path class="st3" d="M308.5,57.9h13.4v7.7c0,1.8,0,4.9,0,7.7c0,3.1-2.5,5.6-5.6,5.7l0,0c-2.8,0-5.9,0-7.8,0
				c-2.6,0-5.2-0.7-7.5-2.2c-1.8-1.1-3.4-2.7-4.4-4.6c-0.3-0.6-0.5-1.1-0.8-1.6c-0.2-0.6-0.4-1.3-0.5-2c-0.3-2.9-0.5-5.8-0.4-8.8
				c-0.1-2.9,0.1-5.9,0.4-8.8c0.2-1.3,0.6-2.5,1.3-3.6c2.4-4.3,6.9-6.9,11.8-6.8h7.6c3.1,0,5.6,2.5,5.6,5.5c0,0.1,0.1,5.5,0.1,5.6
				h-6.1v-3c-0.1-1.5-1.5-2.6-3-2.5c-3,0-4.2,0-4.2,0c-1.2,0.1-2.3,0.4-3.5,0.8c-0.9,0.5-1.7,1.1-2.4,1.9c-0.8,0.9-1.3,2-1.5,3.1
				c-0.3,2.5-0.5,5.1-0.4,7.6c-0.1,2.5,0.1,5,0.4,7.5c0.2,1.2,0.7,2.3,1.5,3.2c0.6,0.8,1.5,1.4,2.4,1.9c1.1,0.6,2.3,0.9,3.5,0.9
				c3.5,0,1.8-0.1,4.9-0.1s2.8-2.6,2.8-2.6v-7.3h-7.7L308.5,57.9z"/>
			<path class="st3" d="M327,41h5.7v37.7H327V41z"/>
			<path class="st3" d="M338.9,41h5.4l17.1,26.9h0.1V41h5.7v37.7h-5.4l-17.1-26.8h-0.1v26.8h-5.7V41L338.9,41z"/>
			<path class="st3" d="M261.5,41h5.4L284,67.9h0.1V41h5.7v37.7h-5.4l-17.1-26.8h-0.1v26.8h-5.7V41z"/>
			<path class="st3" d="M373.4,41h24.1v5.4h-18.4v10.8h15.7v5.1h-15.7v11.1h18.4v5.3h-24.1V41z"/>
		</g>
	</g>
	<g id="shadows">
		<g id="main_1_" class="st4">
			<path id="m_x5F_left1_1_" class="st5" d="M10.8,44.2c0-7.2,3.7-14,9.9-17.8l20.5-11.9L35.5,11L15.4,22.6
				c-6.2,3.8-9.9,10.6-9.9,17.8v21.3l5.3,3.3C10.8,64.9,10.8,44.2,10.8,44.2z"/>
			<path id="m_x5F_middle_1_" class="st6" d="M21.5,48.8c0-7.2,3.7-12,9.9-15.8l20.5-11.9l-7.3-4.6L24.5,28.1
				c-6.2,3.8-9.9,8.6-9.9,15.8v4.8l4.6,21C19.2,69.8,21.5,48.8,21.5,48.8z"/>
			<path id="m_x5F_right_1_" class="st7" d="M32.3,55.7c0-7.2,3.7-12,9.9-15.8L62.7,28l-7.3-4.6L35.3,35c-6.2,3.8-11.2,6.6-9.9,15.8
				l4.2,25.7l2.7,1.7V55.7z"/>
		</g>
	</g>
	<g id="main" class="st4">
		<path id="m_x5F_left1" class="st8" d="M10.8,42.2c0-7.2,3.7-14,9.9-17.8l20.5-12.9L35.5,8L15.4,20.6c-6.2,3.8-9.9,10.6-9.9,17.8
			v23.3l5.3,3.3C10.8,64.9,10.8,42.2,10.8,42.2z"/>
		<path id="m_x5F_middle" class="st8" d="M21.5,48.8c0-7.2,3.7-14,9.9-17.8l20.5-12.9l-7.3-4.6L24.5,26.1
			c-6.2,3.8-9.9,10.6-9.9,17.8v4.8l4.6,21C19.2,69.8,21.5,48.8,21.5,48.8z"/>
		<path id="m_x5F_right" class="st8" d="M32.3,55.7c0-7.2,3.7-14,9.9-17.8L62.7,25l-7.3-4.6L35.3,33c-6.2,3.8-11.2,8.6-9.9,17.8
			l4.2,25.7l2.7,1.7V55.7z"/>
	</g>
</g>
<g id="White" class="st0">
	<g id="Layer_7_1_" class="st9">
		<g id="word-font_1_">
			<path class="st3" d="M58.3,154h5.4l10.8,20.6L85.1,154h5.4v37.7h-5.7v-23.5h-0.1l-7.9,14.1l-2.4,4.3l-10.3-18.4H64v23.5h-5.8
				L58.3,154L58.3,154z"/>
			<path class="st3" d="M115.5,178.4h-10.9l-4.6,13.3h-6l13.7-37.7h4.8l13.7,37.7h-6L115.5,178.4z M113.8,172.9l-3.7-11.2H110
				l-3.7,11.1L113.8,172.9L113.8,172.9z"/>
			<path class="st3" d="M129.6,154h5.7v19.4h0.1L151,154h6.8l-16.1,19.3l17.3,18.4h-6.8l-13.7-14.8l-3.2,4.2v10.6h-5.7L129.6,154
				L129.6,154z"/>
			<path class="st3" d="M162.4,154h24.1v5.4h-18.4v10.8h15.7v5.1h-15.7v11.1h18.4v5.3h-24.1V154z"/>
			<path class="st3" d="M190.6,154h14.7c2.8-0.1,5.5,0.8,7.7,2.5c2.4,2,3.8,4.9,3.8,8c-0.1,5.1-2.5,8.6-7.3,10.5l8.7,16.8h-6.8
				l-7.8-16.1h-7.3v16h-5.7V154L190.6,154z M196.3,170.5h8.7c1.8,0.1,3.6-0.6,4.8-1.9c1-1.1,1.6-2.6,1.6-4.1
				c0.1-1.6-0.6-3.2-1.9-4.3c-1.2-0.9-2.7-1.3-4.2-1.2h-9L196.3,170.5z"/>
			<path class="st3" d="M234.6,154h24.1v5.4h-18.4v10.8H256v5.1h-15.7v11.1h18.4v5.3h-24.1L234.6,154L234.6,154z"/>
			<path class="st3" d="M309.7,170.9h13.4v7.7c0,1.8,0,4.9,0,7.7c0,3.1-2.5,5.6-5.6,5.7l0,0c-2.8,0-5.9,0-7.8,0
				c-2.6,0-5.2-0.7-7.5-2.2c-1.8-1.1-3.4-2.7-4.4-4.6c-0.3-0.6-0.5-1.1-0.8-1.6c-0.2-0.6-0.4-1.3-0.5-2c-0.3-2.9-0.5-5.8-0.4-8.8
				c-0.1-2.9,0.1-5.9,0.4-8.8c0.2-1.3,0.6-2.5,1.3-3.6c2.4-4.3,6.9-6.9,11.8-6.8h7.6c3.1,0,5.6,2.5,5.6,5.5c0,0.1,0.1,5.5,0.1,5.6
				h-6.1v-3c-0.1-1.5-1.5-2.6-3-2.5c-3,0-4.2,0-4.2,0c-1.2,0.1-2.3,0.4-3.5,0.8c-0.9,0.5-1.7,1.1-2.4,1.9c-0.8,0.9-1.3,2-1.5,3.1
				c-0.3,2.5-0.5,5.1-0.4,7.6c-0.1,2.5,0.1,5,0.4,7.5c0.2,1.2,0.7,2.3,1.5,3.2c0.6,0.8,1.5,1.4,2.4,1.9c1.1,0.6,2.3,0.9,3.5,0.9
				c3.5,0,1.8-0.1,4.9-0.1s2.8-2.6,2.8-2.6v-7.3h-7.7L309.7,170.9z"/>
			<path class="st3" d="M328.2,154h5.7v37.7h-5.7V154z"/>
			<path class="st3" d="M340.1,154h5.4l17.1,26.9h0.1V154h5.7v37.7H363l-17.1-26.8h-0.1v26.8h-5.7V154L340.1,154z"/>
			<path class="st3" d="M262.7,154h5.4l17.1,26.9h0.1V154h5.7v37.7h-5.4l-17.1-26.8h-0.1v26.8h-5.7V154z"/>
			<path class="st3" d="M374.6,154h24.1v5.4h-18.4v10.8H396v5.1h-15.7v11.1h18.4v5.3h-24.1V154z"/>
		</g>
	</g>
	<g id="Layer_5_1_" class="st9">
		<path class="st3" d="M12,155.2c0-7.2,3.7-14,9.9-17.8l20.5-12.9l-5.7-3.5l-20.1,12.6c-6.2,3.8-9.9,10.6-9.9,17.8v23.3L12,178
			C12,177.9,12,155.2,12,155.2z"/>
		<path class="st3" d="M22.7,161.8c0-7.2,3.7-14,9.9-17.8l20.5-12.9l-7.3-4.6l-20.1,12.6c-6.2,3.8-9.9,10.6-9.9,17.8v4.8l4.6,21
			C20.4,182.8,22.7,161.8,22.7,161.8z"/>
		<path class="st3" d="M33.5,168.7c0-7.2,3.7-14,9.9-17.8L63.9,138l-7.3-4.6L36.5,146c-6.2,3.8-11.2,8.6-9.9,17.8l4.2,25.7l2.7,1.7
			V168.7z"/>
	</g>
</g>
</svg>
