<?xml version="1.0" encoding="utf-8"?>
<!-- Generator: Adobe Illustrator 23.0.0, SVG Export Plug-In . SVG Version: 6.00 Build 0)  -->
<svg version="1.1" xmlns="http://www.w3.org/2000/svg" xmlns:xlink="http://www.w3.org/1999/xlink" x="0px" y="0px"
	 viewBox="0 0 354.55 81" style="enable-background:new 0 0 354.55 81;" xml:space="preserve">
<style type="text/css">
	.st0{display:none;}
	.st1{display:inline;}
	.st2{fill:#FFFFFF;}
	.st3{fill:none;stroke:#000000;stroke-miterlimit:10;}
	.st4{fill:#BA1717;}
	.st5{display:inline;fill:none;stroke:#000000;stroke-miterlimit:10;}
	.st6{display:inline;fill:#CE1919;}
	.st7{fill:#CCABFF;}
	.st8{fill:#1E1E1E;}
	.st9{fill:#8D17FF;}
</style>
<g id="Layer_1" class="st0">
	<g class="st1">
		<rect x="0.5" y="11.5" class="st2" width="69" height="69"/>
		<path d="M69,12v68H1V12H69 M70,11H0v70h70V11L70,11z"/>
	</g>
	<g class="st1">
		<path class="st2" d="M44.01,12.64c-9.23,0-16.74-7.51-16.74-16.74s7.51-16.74,16.74-16.74S60.75-13.34,60.75-4.1
			S53.24,12.64,44.01,12.64z"/>
		<path d="M44.01-20.35c8.96,0,16.24,7.29,16.24,16.24c0,8.96-7.29,16.24-16.24,16.24S27.77,4.85,27.77-4.1
			C27.77-13.06,35.05-20.35,44.01-20.35 M44.01-21.35c-9.52,0-17.24,7.72-17.24,17.24c0,9.52,7.72,17.24,17.24,17.24
			S61.25,5.42,61.25-4.1C61.25-13.63,53.53-21.35,44.01-21.35L44.01-21.35z"/>
	</g>
	<g class="st1">
		<rect x="35.5" y="-14.01" class="st2" width="7.75" height="9.51"/>
		<path d="M42.75-13.51V-5H36v-8.51H42.75 M43.75-14.51H35V-4h8.75V-14.51L43.75-14.51z"/>
	</g>
	<g class="st1">
		<line class="st3" x1="42.25" y1="0.56" x2="41.13" y2="-8.56"/>
	</g>
	<g class="st1">
		<rect x="44.25" y="-14.01" class="st2" width="7.75" height="9.51"/>
		<path d="M51.5-13.51V-5h-6.75v-8.51H51.5 M52.5-14.51h-8.75V-4h8.75V-14.51L52.5-14.51z"/>
	</g>
	<g class="st1">
		<rect x="53" y="-14.01" class="st2" width="7.75" height="9.51"/>
		<path d="M60.25-13.51V-5H53.5v-8.51H60.25 M61.25-14.51H52.5V-4h8.75V-14.51L61.25-14.51z"/>
	</g>
	<g class="st1">
		<line class="st3" x1="55.41" y1="8.83" x2="53.93" y2="-0.44"/>
	</g>
	<g class="st1">
		<polygon class="st4" points="0.94,22 35,0.59 41.31,4.56 7.25,25.97 		"/>
		<path d="M35,1.18l5.37,3.38L7.25,25.38L1.88,22L35,1.18 M35,0L0,22l7.25,4.56l35-22L35,0L35,0z"/>
	</g>
	<g class="st1">
		<polygon class="st2" points="0.94,22 7.25,18.03 41.31,39.44 35,43.41 		"/>
		<path d="M7.25,18.62l33.12,20.82L35,42.82L1.88,22L7.25,18.62 M7.25,17.44L0,22l35,22l7.25-4.56L7.25,17.44L7.25,17.44z"/>
	</g>
	<g class="st1">
		<polygon class="st2" points="28.69,39.44 62.75,18.03 69.06,22 35,43.41 		"/>
		<path d="M62.75,18.62L68.12,22L35,42.82l-5.37-3.38L62.75,18.62 M62.75,17.44l-35,22L35,44l35-22L62.75,17.44L62.75,17.44z"/>
	</g>
	<g class="st1">
		<polygon class="st2" points="14.1,30.27 48.16,8.86 54.47,12.83 20.41,34.24 		"/>
		<path d="M48.16,9.45l5.37,3.38L20.41,33.65l-5.37-3.38L48.16,9.45 M48.16,8.27l-35,22l7.25,4.56l35-22L48.16,8.27L48.16,8.27z"/>
	</g>
	<line class="st5" x1="17.5" y1="47.63" x2="17.5" y2="33"/>
	<polygon class="st6" points="9.05,-14.81 16.3,-10.26 -18.7,11.74 -53.7,-10.26 -18.7,-32.26 -11.44,-27.7 -39.19,-10.26 
		-33.29,-6.54 -5.54,-23.99 1.71,-19.43 -26.04,-1.99 -18.7,2.63 	"/>
	<g class="st1">
		<polygon class="st2" points="11.95,15.1 18.26,11.13 52.32,32.54 46.01,36.5 		"/>
		<path d="M18.26,11.72l33.12,20.82l-5.37,3.38L12.89,15.1L18.26,11.72 M18.26,10.54l-7.25,4.56l35,22l7.25-4.56L18.26,10.54
			L18.26,10.54z"/>
	</g>
	<rect x="26.77" y="19.11" class="st6" width="22.11" height="6.45"/>
</g>
<g id="BG" class="st0">
	<rect x="-118.49" y="-62.18" class="st1" width="577.9" height="234.08"/>
</g>
<g id="Layer_3">
	<g>
		<path class="st7" d="M94.53,39.23l14.25-17.42h2.94v37.52h-2.93V26.05L94.52,43.59L80.19,26.05v33.27h-2.9V21.81h2.9L94.53,39.23z
			"/>
		<path class="st7" d="M128.71,32.88l12.14,26.45h-2.13l-4.15-9.08h-12.84l-4.14,9.08h-2.13l12.14-26.45H128.71z M133.8,48.56
			l-5.66-12.37l-5.64,12.37H133.8z"/>
		<path class="st7" d="M160.78,33.07l-12.57,13.12l13.78,13.14h-2.58l-13.75-13.12v13.12h-2.03V33.07h2.03v13.06l12.6-13.06H160.78z
			"/>
		<path class="st7" d="M178.67,33.07v1.69h-12.29v10.51h11.97v1.71h-11.97v10.66h12.6v1.69h-14.63V33.07H178.67z"/>
		<path class="st7" d="M182.49,33.07h6.73c2.82,0,4.98,0.61,6.47,1.83c1.49,1.22,2.24,2.87,2.24,4.95c0,3.03-1.67,5.16-5,6.39
			c0.87,0.41,2.03,1.75,3.5,4l5.94,9.08h-2.4l-4.57-7.2c-1.53-2.41-2.72-3.91-3.57-4.5s-2.1-0.89-3.74-0.89h-3.55v12.6h-2.03V33.07z
			 M184.52,34.76v10.28h4.36c2.22,0,3.91-0.45,5.08-1.34c1.17-0.9,1.76-2.16,1.76-3.81c0-1.62-0.6-2.88-1.79-3.78
			c-1.19-0.9-2.9-1.35-5.13-1.35H184.52z"/>
		<path class="st7" d="M240.73,21.81v2.42h-17.56v15.01h17.11v2.44h-17.11v15.23h17.99v2.42h-20.89V21.81H240.73z"/>
		<path class="st7" d="M269.27,33.07v26.26h-1.67l-19.97-22.95v22.95h-2.03V33.07h1.72l19.92,22.95V33.07H269.27z"/>
		<path class="st7" d="M296.83,34.96v2.29c-3.11-1.77-6.21-2.65-9.31-2.65c-3.32,0-6.08,1.1-8.29,3.31
			c-2.21,2.21-3.31,4.97-3.31,8.29c0,3.32,1.09,6.08,3.27,8.28c2.18,2.2,5.14,3.3,8.89,3.3c2.71,0,5.11-0.54,7.2-1.62v-7.09h-5.55
			v-1.69h7.6v10.06c-3.1,1.48-6.2,2.22-9.32,2.22c-4.07,0-7.47-1.29-10.2-3.87c-2.73-2.58-4.09-5.8-4.09-9.66
			c0-3.83,1.34-7.03,4.01-9.58c2.68-2.55,6.04-3.83,10.09-3.83C290.59,32.73,293.59,33.47,296.83,34.96z"/>
		<path class="st7" d="M304.53,33.07v26.26h-2.03V33.07H304.53z"/>
		<path class="st7" d="M334.03,33.07v26.26h-1.67L312.4,36.37v22.95h-2.03V33.07h1.72L332,56.02V33.07H334.03z"/>
		<path class="st7" d="M354.25,33.07v1.69h-12.29v10.51h11.97v1.71h-11.97v10.66h12.6v1.69h-14.63V33.07H354.25z"/>
	</g>
</g>
<g id="Layer_2">
	<g>
		<polygon class="st8" points="35,81 0,59 0,22 35,44 		"/>
	</g>
	<g>
		<polygon class="st8" points="35,81 70,59 70,22 35,44 		"/>
	</g>
	<path class="st9" d="M27.66,30.27L35,34.88c7.75-4.87,15.5-9.74,23.25-14.62c1.5-0.94,3-1.88,4.49-2.83
		c2.42,1.52,4.83,3.04,7.25,4.56L35,44L0,22L35,0l7.25,4.56L14.5,22l5.91,3.71c0.07-0.05,10.42-6.55,10.5-6.6c0,0-3.33,0-3.33,0
		S48.05,8.34,48.16,8.27c2.42,1.52,7.25,4.56,7.25,4.56l-13.72,6.28l3.75,0C45.44,19.11,31.36,27.94,27.66,30.27z"/>
</g>
<g id="Layer_4">
	<polygon class="st9" points="0,22 17.5,47.63 35,44 35,81 0,59 	"/>
	<g>
		<polygon class="st8" points="55.41,22.06 55.41,12.83 41.69,19.11 45.44,19.11 27.66,30.27 35,34.88 		"/>
	</g>
	<g>
		<polygon class="st8" points="14.5,22 20.41,25.71 30.91,19.11 27.58,19.11 42.2,11.41 42.25,4.56 		"/>
	</g>
</g>
</svg>
