<svg xmlns="http://www.w3.org/2000/svg" viewBox="0 0 70 83.04"><defs><style>.cls-1{fill:#565656;}.cls-2{fill:#1dffff;}.cls-3{fill:#13d8e2;}</style></defs><title>makerEngine-logo-color</title><g id="Layer_4" data-name="Layer 4"><polygon class="cls-1" points="35 81 0 59 0 22 35 44 35 81"/><polygon class="cls-1" points="35 81 70 59 70 22 35 44 35 81"/><path class="cls-2" d="M27.66,30.27,35,34.88,58.25,20.27l4.5-2.83L70,22,35,44,0,22,35,0l7.25,4.56L14.5,22l5.91,3.71,10.5-6.6H27.58S48.05,8.34,48.16,8.27l7.25,4.56L41.69,19.11h3.75Z"/><path class="cls-3" d="M35,81,0,59V22l13,8.14L26.76,54,7.27,55,35,72.41Z"/><polygon class="cls-1" points="55.41 22.06 55.41 12.83 41.69 19.11 45.44 19.11 27.66 30.27 35 34.88 55.41 22.06"/><polygon class="cls-1" points="14.5 22 20.41 25.71 30.91 19.11 27.58 19.11 42.2 11.41 42.25 4.56 14.5 22"/></g></svg>