<svg xmlns="http://www.w3.org/2000/svg" viewBox="0 0 72.43 87.11"><defs><style>.cls-1{fill:#e6e6e6;}</style></defs><title>makerEngine-logo-words</title><g id="white"><path class="cls-1" d="M15.41,31.61,29.22,55.48l-19.49,1L37.46,73.89V45.48Z"/><polygon class="cls-1" points="37.46 85.43 72.46 63.43 72.46 23.48 37.46 45.48 37.46 85.43"/><polygon class="cls-1" points="44.15 20.59 47.9 20.59 30.12 31.75 37.46 36.36 57.87 23.53 57.87 14.3 44.15 20.59"/><polygon class="cls-1" points="16.97 23.48 22.87 27.19 33.37 20.59 30.05 20.59 44.67 12.88 44.71 6.03 16.97 23.48"/><polygon class="cls-1" points="43.38 8.15 44.71 6.03 35.4 0 34.73 0.42 -0.04 22.09 -0.04 22.79 -0.04 61.78 0.55 62.23 37.46 85.43 37.46 82.48 2.46 60.48 2.46 23.48 35.4 2.95 43.38 8.15"/><polygon class="cls-1" points="29.04 20.47 27.87 18.26 48.42 8.14 57.87 14.3 56.54 16.42 48.31 11.02 29.04 20.47"/><polygon class="cls-1" points="62.76 17.44 35.07 34.89 37.46 36.36 62.76 20.39 71.13 25.59 72.46 23.48 62.76 17.44"/></g></svg>